<svg xmlns="http://www.w3.org/2000/svg" viewBox="0 0 108.02 53.54"><defs><style>.cls-1{fill:#808284;}.cls-2{fill:#221f20;}.cls-3{fill:#f39323;}</style></defs><title>Infinity</title><g id="Layer_2" data-name="Layer 2"><g id="Layer_1-2" data-name="Layer 1"><path class="cls-1" d="M22.27,44h3.26l.14-.74H23.26l.31-1.62h2.27L26,41H23.71L24,39.54h2.38l.14-.77H23.23l-1,5.27h0Zm5.81,0A2.54,2.54,0,0,0,29,44a.93.93,0,0,0,.51-.31V44l.68,0,1-5.44h-.88L30,40.36a.58.58,0,0,0-.34-.28,2.58,2.58,0,0,0-.77-.08,1.57,1.57,0,0,0-1.56,1A4.56,4.56,0,0,0,27,42a4.5,4.5,0,0,0-.11,1,1.13,1.13,0,0,0,.26.77,1.4,1.4,0,0,0,.88.28Zm.4-.68a.65.65,0,0,1-.51-.17.59.59,0,0,1-.14-.45,3.11,3.11,0,0,1,.06-.71,3.58,3.58,0,0,1,.2-.71,1.08,1.08,0,0,1,.31-.45,1.13,1.13,0,0,1,1.19,0,.6.6,0,0,1,.17.45,3.65,3.65,0,0,1-.09.71,5.18,5.18,0,0,1-.17.71,1,1,0,0,1-.37.45,1.05,1.05,0,0,1-.65.17Zm4.71.71a2.61,2.61,0,0,0,1-.17,1.31,1.31,0,0,0,.6-.51,2.63,2.63,0,0,0,.28-.91L35.59,40h-.85l-.45,2.41a2.2,2.2,0,0,1-.14.51.52.52,0,0,1-.28.31,1.2,1.2,0,0,1-1,0A.35.35,0,0,1,32.7,43a2,2,0,0,1,.06-.54L33.21,40h-.88l-.45,2.47a2,2,0,0,0,0,.91.68.68,0,0,0,.37.51,2.31,2.31,0,0,0,1,.17v0Zm4.59,0a2.27,2.27,0,0,0,.65-.08,3.14,3.14,0,0,0,.62-.2l-.23-.6-.37.11a2.2,2.2,0,0,1-.45.06.94.94,0,0,1-.54-.14.53.53,0,0,1-.2-.45,2.37,2.37,0,0,1,.06-.74,2.26,2.26,0,0,1,.23-.74.88.88,0,0,1,.34-.43,1,1,0,0,1,.6-.14,1.49,1.49,0,0,1,.37,0,1.19,1.19,0,0,1,.28.11l.51-.68a1.25,1.25,0,0,0-.45-.17,3.91,3.91,0,0,0-.62-.06,2.35,2.35,0,0,0-1.16.26,1.75,1.75,0,0,0-.65.71,5.1,5.1,0,0,0-.34,1.11,2.89,2.89,0,0,0-.06,1.08.88.88,0,0,0,.37.71,1.69,1.69,0,0,0,1,.26h0Zm3.43,0a2.77,2.77,0,0,0,.74-.08,1.13,1.13,0,0,0,.54-.31.36.36,0,0,0,.2.28,1.24,1.24,0,0,0,.54.08h.23l.14-.71a.53.53,0,0,1-.28-.06.65.65,0,0,1,0-.31l.28-1.59a1.54,1.54,0,0,0,0-.79.53.53,0,0,0-.34-.45,2.2,2.2,0,0,0-.85-.14,4.3,4.3,0,0,0-.91.08,3.88,3.88,0,0,0-.68.2l.26.65a2,2,0,0,1,.48-.14,4.23,4.23,0,0,1,.62-.06,1.31,1.31,0,0,1,.4.06.27.27,0,0,1,.17.23.81.81,0,0,1,0,.37h-.17a5.29,5.29,0,0,0-1.28.14,1.47,1.47,0,0,0-.79.45,1.71,1.71,0,0,0-.43.88,1.27,1.27,0,0,0,0,.65.72.72,0,0,0,.34.43,1.33,1.33,0,0,0,.77.17Zm.28-.65a.67.67,0,0,1-.45-.14.93.93,0,0,1,.17-1,.77.77,0,0,1,.48-.23,5.86,5.86,0,0,1,.82-.06h.14l-.09.48a1,1,0,0,1-.23.57.86.86,0,0,1-.37.28,1.22,1.22,0,0,1-.48.09h0ZM45,40.76h.68l-.43,2.15a2.47,2.47,0,0,0,0,.65.51.51,0,0,0,.31.37,1.81,1.81,0,0,0,.77.11H47l.14-.71h-.51c-.14,0-.26,0-.31-.06a.19.19,0,0,1-.11-.17,1,1,0,0,1,0-.26l.37-2.1h1l.14-.68h-1l.23-1.13-.74.11-.31,1h-.71l-.14.68ZM48.29,44h.85l.74-4H49Zm.82-4.42H50l.17-.88h-.88l-.17.88Zm3.12,4.48a2,2,0,0,0,1.16-.28,1.5,1.5,0,0,0,.68-.71,3.79,3.79,0,0,0,.31-1A3.66,3.66,0,0,0,54.47,41a1,1,0,0,0-.4-.71A1.83,1.83,0,0,0,53,40a2.47,2.47,0,0,0-1.19.26,1.74,1.74,0,0,0-.65.71,4,4,0,0,0-.34,1.08,3.43,3.43,0,0,0-.06,1,1,1,0,0,0,.4.74,1.83,1.83,0,0,0,1.08.26Zm.11-.71a.8.8,0,0,1-.57-.17.6.6,0,0,1-.17-.45,3.18,3.18,0,0,1,.09-.68,3.72,3.72,0,0,1,.17-.71,1,1,0,0,1,.37-.45,1,1,0,0,1,.62-.17.75.75,0,0,1,.57.17.6.6,0,0,1,.17.45,3.65,3.65,0,0,1-.09.71,2.39,2.39,0,0,1-.17.68,1.13,1.13,0,0,1-.34.45,1.05,1.05,0,0,1-.65.17Zm2.95.65h.85l.4-2.13a3,3,0,0,1,.2-.65.73.73,0,0,1,.31-.4,1.17,1.17,0,0,1,.6-.11.85.85,0,0,1,.45.09.41.41,0,0,1,.14.31,1.67,1.67,0,0,1-.06.48L57.73,44h.88l.48-2.61a2.32,2.32,0,0,0,.06-.74.74.74,0,0,0-.26-.51,1.21,1.21,0,0,0-.79-.2,3.74,3.74,0,0,0-.91.11,1.58,1.58,0,0,0-.48.31V40L56,40.1,55.26,44h0Zm5.84,0a2.77,2.77,0,0,0,.74-.08,1.13,1.13,0,0,0,.54-.31.36.36,0,0,0,.2.28,1.24,1.24,0,0,0,.54.08h.23l.14-.71a.53.53,0,0,1-.28-.06.65.65,0,0,1,0-.31l.28-1.59a1.54,1.54,0,0,0,0-.79.53.53,0,0,0-.34-.45,2.26,2.26,0,0,0-.88-.14,4.21,4.21,0,0,0-.88.08,3.88,3.88,0,0,0-.68.2l.26.65a2,2,0,0,1,.48-.14,3.9,3.9,0,0,1,.62-.06,1.31,1.31,0,0,1,.4.06c.09.06.17.14.17.23a.81.81,0,0,1,0,.37h-.17a5.29,5.29,0,0,0-1.28.14,1.56,1.56,0,0,0-.82.45,1.69,1.69,0,0,0-.4.88,1.27,1.27,0,0,0,0,.65.8.8,0,0,0,.31.43,1.5,1.5,0,0,0,.79.17Zm.28-.65a.67.67,0,0,1-.45-.14c-.11-.11-.11-.28-.09-.54a.8.8,0,0,1,.26-.45.7.7,0,0,1,.48-.23,5.75,5.75,0,0,1,.79-.06h.17l-.09.48a1.31,1.31,0,0,1-.23.57.86.86,0,0,1-.37.28,1.22,1.22,0,0,1-.48.09ZM66,44l.14-.71a.88.88,0,0,1-.31,0,.14.14,0,0,1-.11-.14.3.3,0,0,1,0-.23l.82-4.37H65.7l-.85,4.48a1,1,0,0,0,0,.6.47.47,0,0,0,.26.31,1.66,1.66,0,0,0,.6.08H66Zm3.77,0h.88l1.64-3.66.28,3.66h.88l2.32-5.3h-.85l-1.64,3.74L73,38.77h-.79l-1.67,3.74-.23-3.74h-.91l.34,5.3Zm7.4,0a2,2,0,0,0,1.16-.28,1.44,1.44,0,0,0,.65-.71,3,3,0,0,0,.34-1A3.66,3.66,0,0,0,79.42,41a1.12,1.12,0,0,0-.4-.71A1.83,1.83,0,0,0,77.94,40a2.32,2.32,0,0,0-1.19.26,1.74,1.74,0,0,0-.65.71,3.2,3.2,0,0,0-.34,1.08,2.72,2.72,0,0,0-.06,1,1,1,0,0,0,.4.74,1.73,1.73,0,0,0,1,.26Zm.11-.71a.8.8,0,0,1-.57-.17.6.6,0,0,1-.17-.45,3.18,3.18,0,0,1,.09-.68,3.72,3.72,0,0,1,.17-.71,1.13,1.13,0,0,1,.34-.45,1.11,1.11,0,0,1,.65-.17.8.8,0,0,1,.57.17.6.6,0,0,1,.17.45,3.65,3.65,0,0,1-.09.71,4,4,0,0,1-.17.68,1,1,0,0,1-.37.45,1,1,0,0,1-.62.17Zm2.95.65h.85l.37-2a3.29,3.29,0,0,1,.17-.62A1,1,0,0,1,82,41a1.48,1.48,0,0,1,.79-.2L83,40a2.28,2.28,0,0,0-.85.11,1.42,1.42,0,0,0-.45.31V40L81,40.1,80.24,44h0Zm4.42,0,.11-.71a.88.88,0,0,1-.31,0,.19.19,0,0,1-.11-.14c0-.06,0-.11,0-.23l.82-4.37h-.85l-.85,4.48a2.05,2.05,0,0,0,0,.6.52.52,0,0,0,.28.31,1.66,1.66,0,0,0,.6.08h.31Zm2.41,0a2.54,2.54,0,0,0,.88-.11.93.93,0,0,0,.51-.31V44l.68,0,1-5.44h-.88L89,40.36a.58.58,0,0,0-.34-.28,2.58,2.58,0,0,0-.77-.08,1.57,1.57,0,0,0-1.56,1A4.56,4.56,0,0,0,86,42a4.49,4.49,0,0,0-.11,1,1.13,1.13,0,0,0,.26.77,1.4,1.4,0,0,0,.88.28Zm.4-.68a.69.69,0,0,1-.51-.17.59.59,0,0,1-.14-.45,3.11,3.11,0,0,1,.06-.71,3.58,3.58,0,0,1,.2-.71,1.08,1.08,0,0,1,.31-.45.93.93,0,0,1,.6-.17.88.88,0,0,1,.6.17.6.6,0,0,1,.17.45,3.66,3.66,0,0,1-.09.71,5.19,5.19,0,0,1-.17.71,1,1,0,0,1-.37.45,1.05,1.05,0,0,1-.65.17Z"/><path class="cls-2" d="M34.94,26.44V35H31.23v-7.8a5.07,5.07,0,0,0-.71-2.95,2.47,2.47,0,0,0-2.13-1,3,3,0,0,0-2.49,1.22A5.54,5.54,0,0,0,25,27.86V35H21.31V20.6h3.37v2.61a5.54,5.54,0,0,1,5.13-3,4.68,4.68,0,0,1,3.83,1.59,7,7,0,0,1,1.3,4.62Z"/><path class="cls-2" d="M47.72,13.74l-.17,2.72a6.72,6.72,0,0,0-.74-.23,2.33,2.33,0,0,0-.6-.06,1.89,1.89,0,0,0-1.62.68A3.76,3.76,0,0,0,44.1,19V20.6h3.43v2.75H44.1V35H40.44V23.35h-3V20.6h3V18.76a5.38,5.38,0,0,1,1.3-3.94,5,5,0,0,1,3.8-1.33,7.4,7.4,0,0,1,1.13.06,9.86,9.86,0,0,1,1,.2Z"/><path class="cls-2" d="M50,14.17h3.71v3.57H50Zm0,6.43h3.71V35H50Z"/><path class="cls-2" d="M71.65,26.44V35H67.91v-7.8a5.08,5.08,0,0,0-.68-2.95,2.56,2.56,0,0,0-2.15-1,2.93,2.93,0,0,0-2.47,1.22,5.36,5.36,0,0,0-.94,3.32V35H58V20.6h3.37v2.61A5.71,5.71,0,0,1,63.48,21a5.78,5.78,0,0,1,3-.77,4.74,4.74,0,0,1,3.86,1.59,7.18,7.18,0,0,1,1.3,4.62Z"/><path class="cls-2" d="M75.62,14.17H79.3v3.57H75.62Zm0,6.43H79.3V35H75.62Z"/><path class="cls-2" d="M88.51,15.92V20.6H92v2.72H88.51v6.32A4.09,4.09,0,0,0,89,32a1.92,1.92,0,0,0,1.64.71,2.94,2.94,0,0,0,.65-.08,4.74,4.74,0,0,0,.77-.17L92.14,35a9.26,9.26,0,0,1-1.28.26,9.65,9.65,0,0,1-1.28.08,4.73,4.73,0,0,1-3.69-1.25,6.45,6.45,0,0,1-1.11-4.22V23.32H82V20.6h3V17.11Z"/><path class="cls-2" d="M93.19,20.6h4l3.57,11,3.52-11H108l-5.7,15.08A11.08,11.08,0,0,1,99.77,40a5.25,5.25,0,0,1-3.6,1.19,5,5,0,0,1-.88-.06A11.33,11.33,0,0,1,94.07,41l.31-2.89a4.52,4.52,0,0,0,.6.14,4.23,4.23,0,0,0,.6.06,2.74,2.74,0,0,0,1.84-.62,6,6,0,0,0,1.45-2.13Z"/><path class="cls-3" d="M10.42,13.29l4.51-4.71s8,8.33,2.75,18.2c-2.32,3.74-2.52,4.93-10.09,10.54S2.51,50.93,10.42,51.47,24.14,41,14.16,34.8c0,0,11.51,5.47,3.06,15.9,0,0-6,6.46-14.71-.11,0,0-5.61-5.27-.06-13.38C3.39,36,5.6,34.15,9.17,30.49s7.68-10.91,1.25-17.21Z"/><path class="cls-3" d="M9.68,28.57,8.29,30.18S.61,23,11,14.25c0,0-8.5,8.84-1.33,14.31Z"/><path class="cls-2" d="M4.41.22a.69.69,0,0,1,0,.91C9,4.73,9.71,2.94,9.71,2.94l3.71,5.84-1.16,1,0,0-1.16,1L5.63,6.68S7.47,6.17,4.3,1.21a.69.69,0,0,1-.88-.11A.67.67,0,0,1,3.48.16a.67.67,0,0,1,.94.06Zm4.9,5.36a.67.67,0,0,1-.06.94.66.66,0,0,1-1-.82l-4-4.51.11-.08,4,4.39a.69.69,0,0,1,.91.09Z"/></g></g></svg>