<svg xmlns="http://www.w3.org/2000/svg" xmlns:xlink="http://www.w3.org/1999/xlink" viewBox="0 0 131.04 59.99"><defs><style>.cls-1,.cls-5{fill:none;}.cls-2{fill:#fbea26;}.cls-3{fill:#82bc46;}.cls-4{fill:#965437;}.cls-5{stroke:#fbea26;stroke-linecap:round;stroke-linejoin:round;stroke-width:0.74px;}.cls-6{fill:#05803e;}.cls-7{fill:#0da550;}.cls-8{clip-path:url(#clip-path);}.cls-9{fill:#dcdf5c;fill-rule:evenodd;}.cls-10{clip-path:url(#clip-path-2);}.cls-11{fill:#e52528;}</style><clipPath id="clip-path"><path class="cls-1" d="M89.44,16.88c-1.73-3.34-1.08-6.38,1.79-9.13a8.52,8.52,0,0,1-1.79,9.13Z"/></clipPath><clipPath id="clip-path-2"><path class="cls-1" d="M89.52,16.91c-3.77-.6-5.81-2.92-6.29-6.86a8.6,8.6,0,0,1,6.29,6.86Z"/></clipPath></defs><title>Lemon_tree_books</title><g id="Layer_2" data-name="Layer 2"><g id="Layer_1-2" data-name="Layer 1"><path class="cls-2" d="M20.38.94,24.58,0l.11.45-4.2.94ZM24.63.23,24.58,0a.22.22,0,0,1,.28.17.25.25,0,0,1-.17.28Zm.17.14-.45.51L24,.57l.45-.51Zm-.62.37.17.14a.2.2,0,0,1-.31,0,.26.26,0,0,1,0-.34Zm0-.26,1,.06V1l-1-.06Zm1,.31V.55a.27.27,0,0,1,.23.26A.22.22,0,0,1,25.2,1Zm.11.2-1,.57-.2-.4,1-.6Zm-1.11.37.11.2A.24.24,0,0,1,24,1.48a.24.24,0,0,1,.11-.31Zm0-.26,2.32.11v.48l-2.35-.11Zm2.32.34V1.23a.22.22,0,0,1,.23.23.25.25,0,0,1-.23.26Zm.14.2-1.13.88-.28-.37,1.13-.91Zm-1.28.68.14.2a.24.24,0,0,1-.34-.06.23.23,0,0,1,.06-.31Zm0-.23h1v.48h-1Zm1,.23V2.1a.22.22,0,0,1,.23.23.23.23,0,0,1-.23.26Zm.17.2L25.09,3.81l-.28-.34,1.45-1.3ZM24.94,3.64l.14.17a.2.2,0,0,1-.31,0,.22.22,0,0,1,0-.31Zm0-.23.77,0v.48l-.77-.06Zm.77.26V3.44a.22.22,0,0,1,.23.23.25.25,0,0,1-.23.26Zm.14.2L23.73,5.48l-.28-.4,2.13-1.62ZM23.58,5.28l.14.2c-.11.06-.26.06-.31-.06a.26.26,0,0,1,0-.34Zm0-.23,2.58-.2,0,.48-2.58.17Zm2.61,0,0-.23a.27.27,0,0,1,.26.23.27.27,0,0,1-.23.26Zm.09.23-2,.94-.2-.43,2-.94ZM24.18,6l.11.2a.23.23,0,1,1-.2-.43Zm0-.26,2.15-.26.06.48-2.15.26Zm2.18,0,0-.26a.23.23,0,0,1,.26.23.23.23,0,0,1-.2.26ZM26.5,6l-1,1-.31-.31,1-1Zm-1.13.82.14.17a.19.19,0,0,1-.31,0,.22.22,0,0,1,0-.31Zm0-.23H26.9V7H25.37Zm1.53.23V6.56a.22.22,0,0,1,.23.23A.23.23,0,0,1,26.9,7Zm.23-.08.31.77L27,7.63,26.7,6.9Zm.09.85.23-.08a.25.25,0,0,1-.14.31c-.11.06-.23,0-.28-.14Zm0-.23,4.37,0v.45l-4.37.06Zm4.37.2V7.29a.22.22,0,0,1,.23.23.21.21,0,0,1-.23.23Zm.06.23L26.42,8.91l-.09-.45,5.19-1.16Zm-5.27.94.06.23a.23.23,0,0,1-.28-.17.25.25,0,0,1,.2-.28Zm.09-.23L28.06,9l-.11.45-1.64-.51ZM28,9.19,28.06,9a.23.23,0,1,1-.11.45Zm.06.23-4.42,1.36-.11-.45L27.95,9Zm-4.48,1.13.06.23a.24.24,0,0,1-.28-.17.25.25,0,0,1,.17-.28Zm0-.23,2.69,0v.45l-2.69,0Zm2.69.2V10.3a.22.22,0,0,1,.23.23.24.24,0,0,1-.23.23Zm.14.17-.57.48-.28-.37.57-.48Zm-.71.31.14.17a.22.22,0,0,1-.31,0,.23.23,0,0,1,0-.34Zm0-.26,2.21-.23.06.48-2.21.23Zm2.24,0,0-.26a.27.27,0,0,1,.26.23c0,.14-.09.26-.2.26Zm0-.26a2.44,2.44,0,0,1,.45,0l-.09.45h-.31Zm.43.26,0-.23c.11,0,.2.14.2.26a.23.23,0,0,1-.28.2Zm0-.23a1.54,1.54,0,0,1,1,.6l-.37.28a1.15,1.15,0,0,0-.71-.43Zm1,.6a2.38,2.38,0,0,1,.48,1.3l-.45.06a2,2,0,0,0-.4-1.08Zm.26,1.33.23,0a.22.22,0,0,1-.2.26.27.27,0,0,1-.26-.2Zm.23,0a4.89,4.89,0,0,1,0,1.28l-.45-.09a3.88,3.88,0,0,0,0-1.13Zm-.26,1.22.23.06a.28.28,0,0,1-.28.2.25.25,0,0,1-.17-.28Zm.23,0A3.39,3.39,0,0,1,29.48,15l-.43-.17a2.59,2.59,0,0,0,.28-1.16ZM29.48,15c-.28.77-.57,1.5.54,2.13l-.23.43c-1.45-.82-1.11-1.79-.74-2.72Zm.43,2.35.11-.23a.27.27,0,0,1,.09.34.23.23,0,0,1-.31.08Zm.11-.23a1,1,0,0,1,.51,1.53l-.4-.23c.17-.31.14-.62-.34-.88Zm.51,1.53a8.38,8.38,0,0,1-.62.88l-.37-.28a6.56,6.56,0,0,0,.6-.82Zm-.62.88a4,4,0,0,0-.65,1l-.45-.11a3.89,3.89,0,0,1,.74-1.19Zm-.88,1,.23.06a.24.24,0,0,1-.28.17.23.23,0,0,1-.17-.28Zm0-.23,3.66.34-.06.48L29,20.76Zm3.63.57,0-.23a.23.23,0,0,1,.2.26.23.23,0,0,1-.26.23Zm0-.23a4,4,0,0,1,1.42.34l-.23.43a3.16,3.16,0,0,0-1.25-.28Zm1.42.34a.46.46,0,0,1,.26.4h-.45s0,0,0,0Zm.26.4c0,.14-.09.26-.26.37l-.26-.37a0,0,0,0,1,.06,0Zm-.26.37a3.54,3.54,0,0,1-1.45.51l-.09-.48a3.91,3.91,0,0,0,1.28-.4ZM32.66,22l0,.26a.22.22,0,0,1-.26-.2.24.24,0,0,1,.17-.28Zm.06.26-6,1.45-.09-.48,6-1.45Zm-6,1.22.06.23a.22.22,0,0,1-.26-.17.26.26,0,0,1,.17-.31Zm.23,0,.09.68-.45.06-.09-.71Zm-.14.71.23,0a.23.23,0,0,1-.23.26.19.19,0,0,1-.23-.2Zm0-.23,2.32-.14v.48l-2.3.14Zm2.32.11v-.26a.24.24,0,0,1,.23.23.23.23,0,0,1-.23.26Zm.06.23-2.83.62-.09-.45L29,23.82Zm-2.86.4,0,.23a.22.22,0,0,1-.26-.17.24.24,0,0,1,.17-.28Zm.09-.23.82.4-.17.43-.82-.37Zm.74.6.09-.2a.24.24,0,0,1,.11.31.21.21,0,0,1-.28.11Zm0,.26L23.16,26l-.09-.45L27,24.81Zm-4,.51.06.23a.21.21,0,0,1-.26-.17.24.24,0,0,1,.17-.28Zm0-.23,10.77-.31,0,.45L23.13,26Zm10.77-.08v-.23c.14,0,.23.09.23.23a.2.2,0,0,1-.2.23Zm.14.17s0,.06-.06.09l-.31-.37.09-.09Zm-.06.09s0,0-.06.06l-.34-.31a.39.39,0,0,0,.09-.11Zm-.23-.09.17.14a.22.22,0,0,1-.31,0,.23.23,0,0,1,0-.34Zm0,.23L32,26.23l-.09-.45,1.76-.37ZM31.95,26l.06.23a.23.23,0,0,1-.09-.45Zm0-.26,6.77.08v.45l-6.77-.06Zm6.77.31v-.23a.23.23,0,0,1,0,.45Zm.23,0,0,.28-.45.06,0-.28Zm-.2.31.23,0a.23.23,0,0,1-.2.26.2.2,0,0,1-.26-.2Zm0-.23h2v.45h-2Zm2,.23v-.23a.23.23,0,0,1,0,.45Zm.09.23-3.34,1.36-.17-.45,3.34-1.36ZM37.39,27.7l.09.23a.23.23,0,0,1-.28-.14.24.24,0,0,1,.11-.31Zm0-.23,3.37.37-.06.48-3.37-.4Zm3.34.6,0-.23a.21.21,0,0,1,.2.26.23.23,0,0,1-.26.23Zm.23,0v.37h-.45v-.37Zm-.23.37H41a.22.22,0,0,1-.23.23.24.24,0,0,1-.23-.23Zm0-.26,3.57.23,0,.48-3.57-.23Zm3.54.45,0-.23a.23.23,0,0,1,.2.26.24.24,0,0,1-.23.23Zm0,.26L36.91,30l-.06-.48,7.46-1.08Zm-7.48.82,0,.26a.27.27,0,0,1-.26-.23.27.27,0,0,1,.2-.26Zm0-.23,3.66.2,0,.45L36.88,30Zm3.63.43,0-.23a.2.2,0,0,1,.2.23.22.22,0,0,1-.23.23Zm.06.23L29.23,32.49,29.14,32l11.37-2.32Zm-11.42,2.1.06.26a.27.27,0,0,1-.28-.2.25.25,0,0,1,.2-.28Zm0-.23,6.24.2v.45l-6.26-.17Zm6.24.43v-.23a.22.22,0,0,1,.23.23c0,.14-.11.26-.23.23Zm0,.23-5.3.65-.06-.48,5.3-.62Zm-5.33.4,0,.26a.23.23,0,0,1-.26-.23.22.22,0,0,1,.2-.26Zm0-.23,1.47.23-.06.45-1.47-.2Zm1.45.45,0-.23a.23.23,0,1,1-.06.45Zm0,.23-6.69.65-.06-.48,6.69-.62Zm-6.72.4,0,.26a.23.23,0,0,1-.26-.23c0-.11.09-.26.2-.26Zm0-.23,5.3.45,0,.45-5.33-.43Zm5.27.68,0-.23a.21.21,0,0,1,.2.26.2.2,0,0,1-.23.2Zm.14.2-.37.31-.28-.37.37-.34Zm-.51.11.14.2a.23.23,0,0,1-.28-.37Zm0-.23,1.25.23-.09.45-1.25-.23Zm1.19.45.06-.23a.21.21,0,0,1,.17.26.22.22,0,0,1-.26.2Zm.06.23-1.08.2L30,34.84,31,34.67ZM30,35.1l.06.23a.23.23,0,0,1-.28-.2.28.28,0,0,1,.2-.28Zm0-.26,3,.31-.06.48L30,35.33Zm2.95.57,0-.26a.25.25,0,0,1,.2.28.21.21,0,0,1-.26.2Zm0,.23-3.2.34,0-.45,3.17-.37Zm-3.2.11V36a.2.2,0,0,1-.23-.2.2.2,0,0,1,.2-.26Zm.11.2-1,.6-.23-.4.94-.6Zm-1.08.4.11.2c-.09.08-.23,0-.31-.06a.26.26,0,0,1,.09-.34Zm0-.23,6.63.37,0,.48-6.63-.37Zm6.6.62,0-.26a.23.23,0,0,1,.2.26.22.22,0,0,1-.23.23Zm0,.23-10.71.77,0-.48,10.71-.77Zm-10.74.51,0,.26a.3.3,0,0,1-.26-.23.23.23,0,0,1,.23-.26Zm.11.23-7.37,3.88-.2-.43,7.37-3.88ZM17.4,41.36l.09.23a.22.22,0,0,1-.28-.11.23.23,0,0,1,.09-.31Zm-.2-.14.74-1,.37.26-.74,1Zm.91-.88-.17-.14a.21.21,0,0,1,.31-.06.2.2,0,0,1,.06.31Zm0,.23h-.74v-.48h.74Zm-.74-.23v.23a.22.22,0,0,1-.23-.23.23.23,0,0,1,.23-.26Zm-.17-.17,1.22-1.42.34.31-1.22,1.42ZM18.6,38.9l-.17-.14a.23.23,0,0,1,.34,0,.26.26,0,0,1,0,.34Zm-.09.23-1.16-.6.23-.43,1.13.6Zm-1-.82-.11.23a.29.29,0,0,1-.09-.34.23.23,0,0,1,.31-.09Zm-.11-.2.71-.4.2.43-.68.4Zm.82-.17-.11-.23a.23.23,0,0,1,.2.43Zm0,.23L14,38.5,14,38l4.14-.34ZM14,38.27v.23a.2.2,0,0,1-.23-.2A.21.21,0,0,1,14,38ZM13.95,38l3.8-1.19.14.45-3.8,1.19Zm3.86-1-.06-.23A.21.21,0,0,1,18,37a.27.27,0,0,1-.14.31Zm0,.23-1,.17L16.7,37l1.08-.14Zm-1.11-.09.06.26A.24.24,0,1,1,16.7,37Zm-.11-.17.91-.74.28.37-.94.74Zm1-.54-.14-.2a.21.21,0,0,1,.31.06.22.22,0,0,1,0,.31Zm-.23.06-.06-.28.43-.11.09.28Zm.17-.34-.23.06a.22.22,0,0,1,.17-.28.2.2,0,0,1,.26.17Zm0,.23-7.29.06v-.45L17.57,36Zm-7.29-.17v.23a.23.23,0,1,1,0-.45Zm-.2-.06.09-.4.43.09-.09.43Zm.31-.37-.23,0a.22.22,0,1,1,.43.09Zm-.06-.23,3.06-.54.09.48-3.06.54Zm3.12-.28-.06-.26a.24.24,0,0,1,.09.48Zm-.06.23-2.3-.43.09-.45,2.3.4Zm-2.27-.65,0,.23c-.11,0-.2-.14-.2-.26a.23.23,0,0,1,.28-.2Zm-.23,0,0-.43.45,0,0,.4Zm.2-.43h-.23a.27.27,0,0,1,.23-.26.22.22,0,0,1,.23.23Zm-.09-.23,1.36-.54.17.43-1.36.54ZM12.5,34l-.09-.23a.23.23,0,0,1,.31.14.23.23,0,0,1-.14.28Zm0,.23-3.26-.17,0-.45,3.26.14Zm-3.26-.4v.23A.24.24,0,0,1,9,33.82a.25.25,0,0,1,.26-.23ZM9,33.8l.06-.28.45.06-.06.28Zm.28-.26-.23,0a.19.19,0,0,1,.23-.2.23.23,0,0,1,.23.26Zm0-.23,3.88-.37,0,.48-3.88.34Zm3.91-.11,0-.26a.27.27,0,0,1,.26.23.23.23,0,0,1-.23.26Zm-.23,0v-.26h.45v.26Zm.23-.26H13a.23.23,0,0,1,.23-.26.25.25,0,0,1,.23.26Zm0-.23,2.27-.14,0,.48-2.27.11Zm2.3.09,0-.23a.24.24,0,1,1,0,.48Zm-.23,0,0-.4.45-.06,0,.43Zm.2-.43-.23,0a.21.21,0,0,1,.2-.26c.11,0,.23.09.26.2Zm0,.23L.23,32.58V32.1l15.19.08ZM.23,32.35v.23A.22.22,0,0,1,0,32.35a.23.23,0,0,1,.23-.26Zm-.23,0,0-.48.45.06,0,.45Zm.26-.45-.23,0a.2.2,0,0,1,.23-.2.23.23,0,0,1,.23.26Zm0-.23,9.33-1,0,.48-9.3,1Zm9.35-.79,0-.23a.27.27,0,0,1,.26.2.28.28,0,0,1-.23.28Zm-.06-.23,1.25-.28.11.48-1.28.28Zm1.3-.06-.06-.23a.23.23,0,0,1,.28.2.25.25,0,0,1-.17.28Zm0,.26-1.67-.37L9.21,30l1.67.34Zm-1.64-.6,0,.23A.23.23,0,1,1,9.21,30Zm0,.23L5.9,30.31l0-.48L9.16,30Zm-3.26-.4v.26a.25.25,0,0,1-.23-.26.27.27,0,0,1,.26-.23Zm0-.23,16.87-2.44.06.48L5.92,30.31Zm16.89-2.18,0-.26a.23.23,0,0,1,.26.23.22.22,0,0,1-.2.26Zm-.06.23-.91-.34.17-.43.88.31Zm-.82-.54-.09.2a.23.23,0,0,1-.14-.28.22.22,0,0,1,.31-.14Zm-.23,0v-.43h.45v.43Zm.23-.43h-.23a.23.23,0,0,1,.45,0Zm0,.23L16,27.25v-.48l5.87-.09ZM16,27v.26a.24.24,0,0,1-.23-.23.23.23,0,0,1,.23-.26Zm0-.23L21.91,26l.06.48L16,27.25Zm6-.48,0-.26a.23.23,0,0,1,.26.23.21.21,0,0,1-.2.26Zm0,.23-4.17-.23,0-.45L22,26Zm-4.17-.45v.23a.22.22,0,0,1-.23-.23.22.22,0,0,1,.26-.23Zm0-.23,4.54-.94.09.48-4.54.91Zm4.59-.68-.06-.26a.31.31,0,0,1,.28.2.25.25,0,0,1-.2.28Zm0,.23-9.13.6,0-.45,9.13-.62Zm-9.13.37V26c-.11,0-.23-.09-.23-.23a.2.2,0,0,1,.2-.23Zm-.06-.23,3.23-.85.11.45L13.27,26Zm3.29-.62-.06-.23a.22.22,0,0,1,.28.17.23.23,0,0,1-.17.28Zm0,.23-11,.06,0-.45,11.06-.08ZM5.41,25v.23A.25.25,0,0,1,5.16,25a.22.22,0,0,1,.23-.23Zm-.06-.23,6.41-.88.06.45-6.38.88Zm6.43-.65,0-.23A.22.22,0,0,1,12,24c0,.11-.09.26-.2.26Zm-.06-.23,2.35-.37.06.48-2.32.34Zm2.38-.11,0-.26a.27.27,0,0,1,.26.2.23.23,0,0,1-.2.28Zm0,.23-1.33-.2.06-.45,1.33.17Zm-1.3-.43,0,.23c-.11,0-.2-.14-.2-.26a.22.22,0,0,1,.26-.2Zm0-.23,1.64-.37.09.48-1.64.34Zm1.67-.11,0-.26a.24.24,0,0,1,.26.2.24.24,0,0,1-.17.28Zm-.06.23-1.08-.28.11-.48,1.08.28Zm-1-.51-.06.23a.25.25,0,0,1-.17-.28c.06-.14.17-.23.28-.2Zm-.09-.23,1.08-.43.17.45-1.08.4Zm1.16-.2-.09-.23a.24.24,0,1,1,.17.45Zm0,.23-5.87.06v-.48l5.87,0Zm-5.87-.2v.26a.25.25,0,0,1-.23-.26.22.22,0,0,1,.23-.23Zm-.06-.23,5-1.5.11.45-5,1.5ZM13.61,21l-.06-.23a.21.21,0,0,1,.28.14.24.24,0,0,1-.17.31Zm0,.23-3.4.08v-.45l3.4-.11Zm-3.4-.14v.23c-.11,0-.23-.08-.23-.23a.22.22,0,0,1,.23-.23Zm-.06-.23,6.38-1.59.11.48-6.38,1.56Zm6.43-1.36-.06-.23a.25.25,0,0,1,.28.17.29.29,0,0,1-.17.31Zm-.2-.09L17.06,18l.43.23-.71,1.45Zm.88-1.36-.2-.11a.23.23,0,0,1,.31-.09.24.24,0,0,1,.11.31Zm0-.23,3.23-.4.06.48-3.26.37Zm3.26-.14,0-.26a.23.23,0,0,1,.26.23.23.23,0,0,1-.2.26Zm0,.23-1.76-.14,0-.48,1.79.14Zm-1.73-.4,0,.26c-.11,0-.23-.14-.2-.26s.11-.26.23-.23Zm-.06-.23,1.84-.4.09.45-1.84.4Zm1.87-.17,0-.23a.2.2,0,0,1,.26.17.24.24,0,0,1-.17.28Zm0,.23L19,17.13l.06-.45,1.56.2ZM19,16.9l0,.23a.21.21,0,0,1-.2-.26.2.2,0,0,1,.26-.2Zm-.11-.23,1.93-.88.2.43-1.93.91Zm2-.65-.11-.23a.24.24,0,0,1,.31.11.22.22,0,0,1-.11.31Zm0,.23-5.33,0V15.8l5.33,0Zm-5.33-.2v.23a.24.24,0,0,1-.23-.23.27.27,0,0,1,.23-.26Zm-.17-.14,2.78-3.52.37.31-2.78,3.49Zm3-3.37-.2-.14a.23.23,0,0,1,.34,0,.26.26,0,0,1,0,.34Zm0,.26h-1.7v-.48h1.7Zm-1.7-.26v.26a.25.25,0,0,1-.23-.26.24.24,0,0,1,.23-.23Zm-.09-.2,3.57-1.84.2.43-3.57,1.84Zm3.66-1.62-.09-.23a.23.23,0,0,1,.2.43Zm-.23,0V9.9h.45v.82Zm.23-.82h-.23a.25.25,0,0,1,.23-.26.23.23,0,0,1,.23.26Zm-.11-.2,1.64-1.08.26.4L20.44,10.1Zm1.76-.88-.11-.2a.2.2,0,0,1,.31.06.3.3,0,0,1-.06.34Zm-.06-.23,2.83-.74.09.45L22,9Zm2.86-.51,0-.23A.22.22,0,0,1,25,8a.22.22,0,0,1-.17.28Zm-.2.09-.14-.34.43-.17L25,8Zm.09-.43-.23.08a.27.27,0,0,1,.14-.31.21.21,0,0,1,.28.14Zm0,.23-3.12.14,0-.48,3.15-.11Zm-3.12-.11v.26a.24.24,0,0,1-.23-.23.23.23,0,0,1,.2-.26Zm-.23,0V7.15h.45v.71Zm.23-.71h-.23a.23.23,0,0,1,.23-.26.25.25,0,0,1,.23.26Zm0,.23-3.37-.23,0-.45,3.37.2Zm-3.37-.45v.23a.25.25,0,0,1-.23-.26c0-.11.14-.23.26-.2ZM18,6.75l2.15-2.49.34.34L18.28,7.09ZM20.3,4.43l-.17-.17a.24.24,0,1,1,.34.34Zm-.06-.23,1.56-.48.11.45-1.53.48Zm1.62-.26-.06-.23a.24.24,0,0,1,.28.17.25.25,0,0,1-.17.28Zm0,.26-1.53-.09,0-.45,1.5.06Zm-1.53-.31v.23a.24.24,0,0,1-.23-.23c0-.14.11-.26.26-.23Zm-.06-.23,1.11-.4.14.43-1.11.43Zm1.16-.2-.06-.2a.2.2,0,0,1,.28.14.21.21,0,0,1-.14.28Zm-.06.23L20,3.27l.14-.45,1.39.43ZM20,3,20,3.27A.23.23,0,0,1,19.84,3a.23.23,0,0,1,.28-.14Zm-.11-.2,1-.65.23.43-1,.62ZM21,2.42l-.11-.23a.24.24,0,0,1,.31.08.27.27,0,0,1-.09.34Zm0,.23-.79-.09.06-.48.79.09Zm-.77-.34,0,.26a.28.28,0,0,1-.2-.28c0-.11.14-.23.26-.2Zm-.09-.23,2-.77.17.43-2,.79Zm2.07-.57-.09-.2a.23.23,0,0,1,.31.11.25.25,0,0,1-.14.31Zm0,.26L20.38,1.4l.09-.45,1.81.34Zm-1.76-.6-.06.23a.21.21,0,0,1-.17-.26.22.22,0,0,1,.26-.2Z"/><path class="cls-3" d="M20.44,1.17l4.2-.94-.45.51,1,.06-1,.57,2.35.08-1.13.88h1l-1.45,1.3.77,0L23.58,5.28l2.61-.2-2,1,2.15-.26-1,1H26.9l.31.77,4.37,0L26.36,8.68,28,9.19l-4.42,1.36,2.69,0-.57.48,2.21-.23c1.08-.11,2,.91,1.64,2.89.11,1.25-1.59,2.61.34,3.71,1.56.79-.6,2.1-.88,3.15l3.66.34c2.1.26,1.81.77,0,1.13l-6,1.47.09.68,2.3-.11-2.81.62.82.37-4,.77,10.77-.31c-.06.06-.11.08-.14.17L31.95,26l6.77.06,0,.28h2L37.39,27.7l3.37.37v.37l3.57.2-7.46,1.08,3.66.2L29.17,32.24l6.26.2-5.3.62,1.47.23-6.69.62,5.3.45-.37.31,1.22.23L30,35.1l3,.31-3.17.34-1,.6,6.63.4-10.71.74L17.4,41.36l.71-1h-.74L18.6,38.9l-1.13-.6.71-.37L14,38.27l3.77-1.19-1.08.14.94-.71-.06-.28-7.29.06.11-.43,3.06-.51-2.32-.43,0-.4L12.5,34l-3.26-.17.06-.28,3.88-.34v-.26l2.27-.14,0-.4L.23,32.35l0-.48,9.33-1,1.25-.28-1.67-.34L5.9,30.05l16.87-2.41-.88-.31v-.43L16,27l5.92-.71-4.17-.23,4.56-.91-9.13.6,3.23-.85L5.41,25l6.38-.88,2.32-.34-1.33-.2,1.64-.34-1.08-.28,1.08-.43-5.87,0,5-1.5-3.4.09,6.38-1.59.68-1.45,3.26-.37-1.76-.17,1.81-.4L19,16.9,20.95,16l-5.33,0,2.81-3.51h-1.7l3.57-1.81V9.9l1.64-1.08,2.81-.74-.11-.34-3.12.11V7.15l-3.4-.23L20.3,4.43l1.56-.48-1.53-.06,1.11-.43L20,3l1-.62-.79-.11,2-.79Z"/><path class="cls-2" d="M16.36,59.14H26.87V60H16.36Zm10.52.43v-.43a.4.4,0,0,1,.4.43.41.41,0,0,1-.4.43Zm-.4.09a50.28,50.28,0,0,1-1.13-15.22l.79.09a49.31,49.31,0,0,0,1.13,14.94ZM25.34,44.43a27.37,27.37,0,0,1,4.22-12.64l.68.45a26.89,26.89,0,0,0-4.11,12.27ZM29.91,32l-.34-.23a.38.38,0,0,1,.57-.11.44.44,0,0,1,.11.57Zm0,.43h-.68v-.85h.68ZM29.23,32v.43a.43.43,0,0,1,0-.85Zm-.4,0V30.59h.82V32Zm.4-1.42h-.4a.41.41,0,0,1,.4-.43.44.44,0,0,1,.43.43Zm.4.14a13.19,13.19,0,0,1-3.46,5.7l-.48-.68a12.72,12.72,0,0,0,3.17-5.3Zm-3.46,5.7a2.56,2.56,0,0,1-1.42.65l-.06-.85a2.11,2.11,0,0,0,1-.48Zm-1.42.65a1.51,1.51,0,0,1-1.3-.6l.6-.57a.8.8,0,0,0,.65.31Zm-1.3-.6a4.73,4.73,0,0,1-.85-2.95l.79,0A4.39,4.39,0,0,0,24,35.92ZM23,33.54h-.4a.37.37,0,0,1,.37-.43.38.38,0,0,1,.43.4Zm-.4,0,.09-6h.82l-.11,6.07Zm.48-6h-.4A.42.42,0,0,1,23.1,27a.41.41,0,0,1,.4.43Zm.34.26-.57.77L22.2,28l.57-.74Zm-.91.51.34.26A.42.42,0,1,1,22.2,28Zm0,.43h-.74v-.85h.74Zm-.74-.43v.43a.44.44,0,0,1-.43-.43.42.42,0,0,1,.43-.43Zm.4-.11c.77,3.17.62,5.67,0,7.2L21.43,35c.57-1.36.68-3.69-.06-6.66Zm0,7.2a3.2,3.2,0,0,1-1,1.45l-.48-.68A2.65,2.65,0,0,0,21.43,35Zm-1,1.45a1.86,1.86,0,0,1-1.53.34l.17-.85a1.07,1.07,0,0,0,.88-.17Zm-1.53.34a3.82,3.82,0,0,1-2.13-1.62l.65-.51a2.89,2.89,0,0,0,1.64,1.28Zm-1.81-1.87-.31.26a.41.41,0,0,1,.09-.6.39.39,0,0,1,.57.09Zm-.37.17-2.07-4.65.74-.34L18.14,35Zm-1.7-4.82-.37.17a.46.46,0,0,1,.2-.57.41.41,0,0,1,.54.23Zm.4.11-.37,1.5-.79-.2.37-1.53Zm-.77,1.39.4.11a.42.42,0,0,1-.51.31.41.41,0,0,1-.28-.51Zm0,.43h-.68v-.85h.68Zm-.68-.43v.43a.4.4,0,0,1-.4-.43.41.41,0,0,1,.4-.43Zm.31-.26a20.22,20.22,0,0,1,4.45,12.08L18.6,44a19.25,19.25,0,0,0-4.25-11.59Zm4.45,12.08c.26,4.65-.68,9.92-2.66,15.79L16,59.42c2-5.75,2.86-10.91,2.61-15.45ZM16.36,59.56l.4.14a.44.44,0,0,1-.51.26.42.42,0,0,1-.26-.54ZM20,31a1.52,1.52,0,0,1,1.25.85l-.71.43a.7.7,0,0,0-.54-.43Zm1.25.85a3.66,3.66,0,0,1,.43,1.76h-.82a2.72,2.72,0,0,0-.31-1.33Zm.43,1.76a3.66,3.66,0,0,1-.43,1.76l-.71-.43a2.65,2.65,0,0,0,.31-1.33Zm-.43,1.76a1.46,1.46,0,0,1-1.25.85v-.85a.7.7,0,0,0,.54-.43ZM20,36.18a1.46,1.46,0,0,1-1.25-.85l.71-.43a.7.7,0,0,0,.54.43Zm-1.25-.85a3.66,3.66,0,0,1-.43-1.76h.82a2.65,2.65,0,0,0,.31,1.33Zm-.43-1.76a3.66,3.66,0,0,1,.43-1.76l.71.43a2.72,2.72,0,0,0-.31,1.33Zm.43-1.76A1.52,1.52,0,0,1,20,31v.85a.7.7,0,0,0-.54.43Zm6.29-.91a1.38,1.38,0,0,1,1.13.88l-.74.4c-.11-.26-.26-.43-.4-.43Zm1.13.88a4,4,0,0,1,.37,1.76h-.82a3.13,3.13,0,0,0-.28-1.36Zm.37,1.76a4,4,0,0,1-.37,1.76l-.74-.4a3.13,3.13,0,0,0,.28-1.36Zm-.37,1.76a1.38,1.38,0,0,1-1.13.88v-.85c.14,0,.28-.17.4-.43Zm-1.13.88A1.38,1.38,0,0,1,24,35.3l.74-.4c.11.26.26.43.4.43ZM24,35.3a4,4,0,0,1-.37-1.76h.82a3.13,3.13,0,0,0,.28,1.36Zm-.37-1.76A4,4,0,0,1,24,31.78l.74.4a3.13,3.13,0,0,0-.28,1.36ZM24,31.78a1.38,1.38,0,0,1,1.13-.88v.85c-.14,0-.28.17-.4.43Z"/><path class="cls-4" d="M16.36,59.56H26.87c-2.3-10.86-1.73-20.24,3-27.55h-.68V30.59C27,36.83,23.3,39,23,33.54l.09-6.07-.57.77h-.74c1.76,7.14-1.25,10.71-4,7L15.7,30.59l-.37,1.5h-.68C20,38.64,20.32,48,16.36,59.56ZM20,31.39c.71,0,1.25,1,1.25,2.18s-.54,2.18-1.25,2.18-1.25-1-1.25-2.18.57-2.18,1.25-2.18Zm5-.06c.6,0,1.08,1,1.08,2.21s-.48,2.21-1.08,2.21S24,34.76,24,33.54s.48-2.21,1.08-2.21Z"/><path class="cls-5" d="M59,28c-.14,0-.37,0-.71,0s-.57-.06-.71-.06a14.42,14.42,0,0,0-4.42.68,4.55,4.55,0,0,1-1.28.28,1,1,0,0,1-.79-.4,1.6,1.6,0,0,1-.28-.77A3.83,3.83,0,0,1,51,27a13.42,13.42,0,0,0,.28-1.76L52,18.3A8.59,8.59,0,0,1,52.19,17a1,1,0,0,1,.34-.54,1.38,1.38,0,0,1,.79-.23,1,1,0,0,1,.71.31.94.94,0,0,1,.31.65,6.74,6.74,0,0,1-.17,1.13c-.14.77-.34,2.27-.6,4.48s-.4,3.37-.4,3.52,0,.23.09.23A12.67,12.67,0,0,0,55,26.35c.43-.06.88-.11,1.33-.14a15,15,0,0,0,2.75-.28,3,3,0,0,1,.37-.06,1,1,0,0,1,.71.28.9.9,0,0,1,.26.65,1,1,0,0,1-.45.88A1.56,1.56,0,0,1,59,28Z"/><path class="cls-6" d="M59,28c-.14,0-.37,0-.71,0s-.57-.06-.71-.06a14.42,14.42,0,0,0-4.42.68,4.55,4.55,0,0,1-1.28.28,1,1,0,0,1-.79-.4,1.6,1.6,0,0,1-.28-.77A3.83,3.83,0,0,1,51,27a13.42,13.42,0,0,0,.28-1.76L52,18.3A8.59,8.59,0,0,1,52.19,17a1,1,0,0,1,.34-.54,1.38,1.38,0,0,1,.79-.23,1,1,0,0,1,.71.31.94.94,0,0,1,.31.65,6.74,6.74,0,0,1-.17,1.13c-.14.77-.34,2.27-.6,4.48s-.4,3.37-.4,3.52,0,.23.09.23A12.67,12.67,0,0,0,55,26.35c.43-.06.88-.11,1.33-.14a15,15,0,0,0,2.75-.28,3,3,0,0,1,.37-.06,1,1,0,0,1,.71.28.9.9,0,0,1,.26.65,1,1,0,0,1-.45.88A1.56,1.56,0,0,1,59,28Z"/><path class="cls-5" d="M68.77,25.56c0,.6-.48,1.28-1.45,2.07A4.93,4.93,0,0,1,64,28.84,2.92,2.92,0,0,1,61.83,28,3.45,3.45,0,0,1,61,25.47a6.77,6.77,0,0,1,1.64-4.37,4.65,4.65,0,0,1,3.54-2,2,2,0,0,1,1.5.6A2,2,0,0,1,68.26,21a3.92,3.92,0,0,1-1.39,2.78,7.64,7.64,0,0,1-3.57,1.81.28.28,0,0,0-.26.28,1.06,1.06,0,0,0,.34.77,1.28,1.28,0,0,0,1,.37,4.67,4.67,0,0,0,3.32-1.73.92.92,0,0,1,.62-.34c.34,0,.48.2.48.57Zm-5.58-1.47a4.84,4.84,0,0,0,2.32-1.13,2.19,2.19,0,0,0,1-1.56.67.67,0,0,0-.14-.45.54.54,0,0,0-.4-.2c-.48,0-1,.37-1.62,1.08a5.59,5.59,0,0,0-1.16,2.27Z"/><path class="cls-6" d="M68.77,25.56c0,.6-.48,1.28-1.45,2.07A4.93,4.93,0,0,1,64,28.84,2.92,2.92,0,0,1,61.83,28,3.45,3.45,0,0,1,61,25.47a6.77,6.77,0,0,1,1.64-4.37,4.65,4.65,0,0,1,3.54-2,2,2,0,0,1,1.5.6A2,2,0,0,1,68.26,21a3.92,3.92,0,0,1-1.39,2.78,7.64,7.64,0,0,1-3.57,1.81.28.28,0,0,0-.26.28,1.06,1.06,0,0,0,.34.77,1.28,1.28,0,0,0,1,.37,4.67,4.67,0,0,0,3.32-1.73.92.92,0,0,1,.62-.34c.34,0,.48.2.48.57Zm-5.58-1.47a4.84,4.84,0,0,0,2.32-1.13,2.19,2.19,0,0,0,1-1.56.67.67,0,0,0-.14-.45.54.54,0,0,0-.4-.2c-.48,0-1,.37-1.62,1.08a5.59,5.59,0,0,0-1.16,2.27Z"/><path class="cls-5" d="M72.8,27.94a.87.87,0,0,1-1,.85c-.74,0-1.08-.51-1.08-1.56A31.74,31.74,0,0,1,71,22.86a18.66,18.66,0,0,0,.23-2.78.75.75,0,0,1,.2-.54.81.81,0,0,1,.6-.23c.82,0,1.25.51,1.25,1.53a15.58,15.58,0,0,1-.45,2.49,9.48,9.48,0,0,0-.26,1.76c1.59-3.49,3-5.24,4.31-5.24a1.47,1.47,0,0,1,1.25.62,5,5,0,0,1,.48,2.72c0,1.3.06,1.93.2,1.93s.45-.62,1-1.87a9,9,0,0,1,1.7-2.72A2.09,2.09,0,0,1,83,19.86a1.38,1.38,0,0,1,1.33.79,7.59,7.59,0,0,1,.6,2.69,13.44,13.44,0,0,0,.34,2.27,1.49,1.49,0,0,0,.71,1,.65.65,0,0,1,.43.6,1,1,0,0,1-.48.74,1.6,1.6,0,0,1-1,.34,1.52,1.52,0,0,1-1.33-.82A8.86,8.86,0,0,1,83,24.11c-.09-.82-.14-1.36-.2-1.62s-.2-.4-.31-.4-.31.2-.54.6-.65,1.19-1.22,2.38a11.37,11.37,0,0,1-1.3,2.24,1.55,1.55,0,0,1-1.16.62,1.53,1.53,0,0,1-1-.43c-.31-.26-.48-1.28-.51-3,0-1.56-.14-2.35-.31-2.35s-.79.71-1.67,2.07a23.64,23.64,0,0,0-2,3.71Z"/><path class="cls-6" d="M72.8,27.94a.87.87,0,0,1-1,.85c-.74,0-1.08-.51-1.08-1.56A31.74,31.74,0,0,1,71,22.86a18.66,18.66,0,0,0,.23-2.78.75.75,0,0,1,.2-.54.81.81,0,0,1,.6-.23c.82,0,1.25.51,1.25,1.53a15.58,15.58,0,0,1-.45,2.49,9.48,9.48,0,0,0-.26,1.76c1.59-3.49,3-5.24,4.31-5.24a1.47,1.47,0,0,1,1.25.62,5,5,0,0,1,.48,2.72c0,1.3.06,1.93.2,1.93s.45-.62,1-1.87a9,9,0,0,1,1.7-2.72A2.09,2.09,0,0,1,83,19.86a1.38,1.38,0,0,1,1.33.79,7.59,7.59,0,0,1,.6,2.69,13.44,13.44,0,0,0,.34,2.27,1.49,1.49,0,0,0,.71,1,.65.65,0,0,1,.43.6,1,1,0,0,1-.48.74,1.6,1.6,0,0,1-1,.34,1.52,1.52,0,0,1-1.33-.82A8.86,8.86,0,0,1,83,24.11c-.09-.82-.14-1.36-.2-1.62s-.2-.4-.31-.4-.31.2-.54.6-.65,1.19-1.22,2.38a11.37,11.37,0,0,1-1.3,2.24,1.55,1.55,0,0,1-1.16.62,1.53,1.53,0,0,1-1-.43c-.31-.26-.48-1.28-.51-3,0-1.56-.14-2.35-.31-2.35s-.79.71-1.67,2.07a23.64,23.64,0,0,0-2,3.71Z"/><path class="cls-5" d="M108.23,28.22a8.21,8.21,0,0,1-.6-2.81c-.11-1.42-.4-2.13-.82-2.13s-1.08.74-2.07,2.21a15.71,15.71,0,0,0-1.81,3.29,1.1,1.1,0,0,1-.28.54.54.54,0,0,1-.4.2c-.85,0-1.28-.4-1.28-1.16a13.78,13.78,0,0,1,.26-1.79,24.33,24.33,0,0,0,.31-4.39,1.37,1.37,0,0,1,.37-.85.92.92,0,0,1,.71-.43,1,1,0,0,1,.74.23,2,2,0,0,1,.26,1.28,18.6,18.6,0,0,1-.45,3.09c1.19-2.83,2.55-4.25,4-4.25,1.3,0,2,1,2.27,3.06s.48,3.09.77,3.09a1.41,1.41,0,0,0,.45-.09,1.74,1.74,0,0,1,.45-.08c.28,0,.43.14.43.45a1.31,1.31,0,0,1-.57.91,2.07,2.07,0,0,1-1.39.48,1.4,1.4,0,0,1-1.36-.85Z"/><path class="cls-6" d="M108.23,28.22a8.21,8.21,0,0,1-.6-2.81c-.11-1.42-.4-2.13-.82-2.13s-1.08.74-2.07,2.21a15.71,15.71,0,0,0-1.81,3.29,1.1,1.1,0,0,1-.28.54.54.54,0,0,1-.4.2c-.85,0-1.28-.4-1.28-1.16a13.78,13.78,0,0,1,.26-1.79,24.33,24.33,0,0,0,.31-4.39,1.37,1.37,0,0,1,.37-.85.92.92,0,0,1,.71-.43,1,1,0,0,1,.74.23,2,2,0,0,1,.26,1.28,18.6,18.6,0,0,1-.45,3.09c1.19-2.83,2.55-4.25,4-4.25,1.3,0,2,1,2.27,3.06s.48,3.09.77,3.09a1.41,1.41,0,0,0,.45-.09,1.74,1.74,0,0,1,.45-.08c.28,0,.43.14.43.45a1.31,1.31,0,0,1-.57.91,2.07,2.07,0,0,1-1.39.48,1.4,1.4,0,0,1-1.36-.85Z"/><path class="cls-7" d="M89.44,16.88c-1.73-3.34-1.08-6.38,1.79-9.13a8.52,8.52,0,0,1-1.79,9.13Z"/><g class="cls-8"><path class="cls-9" d="M89.58,17.05a31.81,31.81,0,0,1,1.3-7.82,23.07,23.07,0,0,0-1.56,7.88Z"/></g><path class="cls-7" d="M89.66,16.48c-.2.09-.2.28-.23.57L88.5,17c.06-.68.09-1.16.88-1.45Zm-.23.57A3.34,3.34,0,0,1,89,18.78l-.79-.54A2.59,2.59,0,0,0,88.5,17Zm-.88,1.47.4.26a.44.44,0,0,1-.65.14.5.5,0,0,1-.14-.68Zm.4.26-.17.28L88,18.53l.17-.28Zm-.57,0,.4.28a.46.46,0,0,1-.65.14.5.5,0,0,1-.14-.68Zm.4.28a8.14,8.14,0,0,0-.91,1.79L87,20.51a8.66,8.66,0,0,1,1-2Zm-.91,1.79a7.8,7.8,0,0,0-.11,4.62l-.88.31A8.61,8.61,0,0,1,87,20.51Zm-.11,4.62a7.72,7.72,0,0,0,2.75,3.77l-.54.82a8.86,8.86,0,0,1-3.09-4.28Zm2.75,3.77a5.39,5.39,0,0,0,2.64,1.16l-.17,1a6,6,0,0,1-3-1.33Zm2.64,1.16a8.57,8.57,0,0,1,1.84.54l-.31.94a10.62,10.62,0,0,0-1.7-.48Zm1.7,1,.14-.45a.49.49,0,0,1-.31.94Zm.11-.48a3.63,3.63,0,0,1,.85.48l-.54.82a2.49,2.49,0,0,0-.57-.34Zm.85.48a2.46,2.46,0,0,0,.94.48l-.17,1a3.76,3.76,0,0,1-1.3-.65Zm.94.48a.93.93,0,0,0,.57,0l.37.91a1.77,1.77,0,0,1-1.11.11Zm.57,0a1.14,1.14,0,0,0,.37-.37l.79.48a1.66,1.66,0,0,1-.79.79Zm.37-.37a2.7,2.7,0,0,0,.2-1.08l.94.06a3.3,3.3,0,0,1-.34,1.5Zm.2-1.08a2.74,2.74,0,0,1,.14-1l.88.37a2.14,2.14,0,0,0-.09.65Zm.57-.77-.43-.2a.46.46,0,0,1,.6-.28.53.53,0,0,1,.28.65ZM98,29.5a9.19,9.19,0,0,1,.74-1.79l.82.45a10,10,0,0,0-.65,1.62Zm.74-1.79a5.34,5.34,0,0,0,.68-2.78h.94a6.22,6.22,0,0,1-.79,3.23Zm.68-2.78a8,8,0,0,0-1.3-4.48l.74-.6a8.82,8.82,0,0,1,1.5,5.07Zm-.94-4.76-.37.28a.49.49,0,0,1,.09-.68.43.43,0,0,1,.65.08Zm-.37.28a7.76,7.76,0,0,0-3.77-2.75l.31-.94a8.44,8.44,0,0,1,4.2,3.09ZM94.34,17.7a8,8,0,0,0-2-.4l.11-1a8.56,8.56,0,0,1,2.18.45Zm-2-.4-.31,0,.11-1,.31,0Zm-.26-.51-.06.48a.5.5,0,0,1,.11-1Zm-.06.48a3.43,3.43,0,0,1-1.64-.65l.51-.85a2.55,2.55,0,0,0,1.25.51Zm-1.64-.65c-.26-.17-.43-.31-.62-.17l-.48-.85c.68-.45,1.08-.2,1.62.17Zm-.88-.6.26.43a.47.47,0,0,1-.65-.17.5.5,0,0,1,.17-.68Z"/><path class="cls-2" d="M89.52,16c-.94.31-.2,1.22-1,2.49a9.12,9.12,0,0,0-1.11,2.15,7.76,7.76,0,0,0,2.81,9c1.76,1.39,2.72,1,4.59,1.73.54.17,1,.82,1.81,1a1.24,1.24,0,0,0,1.42-.68c.4-.68.17-1.5.37-2.07.57-1.93,1.47-2.44,1.45-4.71a7.83,7.83,0,0,0-5.41-7.71,9.54,9.54,0,0,0-2.38-.43c-1.47-.17-1.76-1.3-2.58-.77Z"/><path class="cls-7" d="M89.52,16.91c-3.77-.6-5.81-2.92-6.29-6.86a8.6,8.6,0,0,1,6.29,6.86Z"/><g class="cls-10"><path class="cls-9" d="M89.72,16.91a33,33,0,0,1-5.53-5.7,22.88,22.88,0,0,0,5.41,5.92Z"/></g><path class="cls-4" d="M59.43,38.59a.62.62,0,0,0-.34-.62,2.07,2.07,0,0,0-.85-.17,2.6,2.6,0,0,0-.48,0,2.19,2.19,0,0,0-.43.06h0a.42.42,0,0,0-.2,0H57l-.94,0-.91,0-1.45.09c-.45,0-.94,0-1.45,0a3.6,3.6,0,0,1-.48-.06l-.4-.06A2.12,2.12,0,0,0,51,38a1.37,1.37,0,0,0-.43.2,4.47,4.47,0,0,0-.43.34,1.73,1.73,0,0,0-.34.45.68.68,0,0,0-.09.45.6.6,0,0,0,.2.43.56.56,0,0,0,.34.23.9.9,0,0,0,.4.09h1.47l1.08,0c.06,0,.11,0,.11.06a.13.13,0,0,1,0,.14v.54c0,.14,0,.28,0,.45,0,.94-.06,1.84-.06,2.78v1.42c0,.2,0,.37,0,.57,0,.6,0,1.16.06,1.73s.11,1,.2,1.5a1.73,1.73,0,0,0,.26.57.75.75,0,0,0,.62.26,1,1,0,0,0,.62-.2,4,4,0,0,0,.48-.4,1.23,1.23,0,0,0,.4-.62,2,2,0,0,0-.09-.65h0c0-.31-.09-.65-.11-1s0-.82-.06-1.22V42.64c0-.37,0-.71.06-1v-.54a3.25,3.25,0,0,1,0-.54v-.23c0-.14,0-.23.06-.26h.82l.34,0c.28,0,.57,0,.88-.06a3.25,3.25,0,0,0,.79-.23,1.63,1.63,0,0,0,.62-.43,1.29,1.29,0,0,0,.23-.77Zm5.27,4a1.87,1.87,0,0,0-.45-1,1.41,1.41,0,0,0-1.11-.43,2.44,2.44,0,0,0-1.11.26,5.76,5.76,0,0,0-1,.74,1.22,1.22,0,0,0-.28-.71.81.81,0,0,0-.65-.26,1.32,1.32,0,0,0-1,.6,1.77,1.77,0,0,0-.2.68c0,.34-.06.74-.09,1.16s-.06.91-.06,1.42v3.12a3.56,3.56,0,0,0,.2,1.67.87.87,0,0,0,.77.48.56.56,0,0,0,.26-.06.58.58,0,0,0,.26-.14A1.08,1.08,0,0,0,61,49c0-.34-.06-.71-.06-1s0-.74,0-1.11,0-.85.06-1.28a4.5,4.5,0,0,1,.2-1.11,2,2,0,0,1,.45-.77,1.28,1.28,0,0,1,.82-.34.72.72,0,0,1,.2.06.38.38,0,0,1,.17.2.59.59,0,0,0,.17.54.66.66,0,0,0,.54.26.76.76,0,0,0,.34-.09,1,1,0,0,0,.34-.28,3.1,3.1,0,0,0,.28-.54,4.74,4.74,0,0,0,.2-.85Zm7.6,4.31a1.13,1.13,0,0,0-.65.34,6.47,6.47,0,0,1-.94.82,2.59,2.59,0,0,1-1.39.34,2,2,0,0,1-1.11-.28,1.49,1.49,0,0,1-.74-.77,1.06,1.06,0,0,1-.17-.43.91.91,0,0,1,.2,0s.09,0,.2,0h.43c.14,0,.28,0,.48-.06s.37-.06.6-.11l.82-.23a4.3,4.3,0,0,0,1.67-.94,2.18,2.18,0,0,0,.62-1.62,2.61,2.61,0,0,0-.23-1.08,3.38,3.38,0,0,0-.65-.88,3.77,3.77,0,0,0-1-.57,3.55,3.55,0,0,0-1.22-.2,4,4,0,0,0-1.73.37,4.28,4.28,0,0,0-1.33,1,5,5,0,0,0-.88,1.53A5.58,5.58,0,0,0,65,46a5.13,5.13,0,0,0,.28,1.79,4.24,4.24,0,0,0,.85,1.36,3.78,3.78,0,0,0,1.3.88,4.7,4.7,0,0,0,1.73.31,4.78,4.78,0,0,0,1.5-.26A5.83,5.83,0,0,0,72,49.39a3,3,0,0,0,.91-.88,1.19,1.19,0,0,0,.23-1v0a.63.63,0,0,0-.28-.48.85.85,0,0,0-.54-.2Zm-2.75-2.13c-.31.08-.62.17-.94.23s-.71.08-1.08.14a.42.42,0,0,0-.2,0,.48.48,0,0,1-.2,0,2.55,2.55,0,0,1,.2-.77,1.92,1.92,0,0,1,.4-.65,1.74,1.74,0,0,1,.54-.48A1.35,1.35,0,0,1,69,43a1.44,1.44,0,0,1,.62.14,1,1,0,0,1,.45.37s0,0,0,0,0,.09.06.09,0,0,0,.06a0,0,0,0,0,0,0,.74.74,0,0,1-.14.48,2.45,2.45,0,0,1-.45.51Zm11.23,2.13a1.22,1.22,0,0,0-.65.34,5.25,5.25,0,0,1-.94.82,2.48,2.48,0,0,1-1.36.34,2.11,2.11,0,0,1-1.13-.28,1.61,1.61,0,0,1-.74-.77,1.81,1.81,0,0,1-.17-.43.91.91,0,0,1,.23,0s.09,0,.17,0h.43c.14,0,.28,0,.48-.06s.37-.06.62-.11l.79-.23a4.3,4.3,0,0,0,1.67-.94,2.18,2.18,0,0,0,.62-1.62,2.61,2.61,0,0,0-.23-1.08,3.38,3.38,0,0,0-.65-.88,3.77,3.77,0,0,0-1-.57,3.44,3.44,0,0,0-1.22-.2,4,4,0,0,0-1.73.37,4.28,4.28,0,0,0-1.33,1,5,5,0,0,0-.88,1.53A5.58,5.58,0,0,0,73.46,46a5.9,5.9,0,0,0,.28,1.79,4.24,4.24,0,0,0,.85,1.36,3.78,3.78,0,0,0,1.3.88,4.7,4.7,0,0,0,1.73.31,4.65,4.65,0,0,0,1.5-.26,5.3,5.3,0,0,0,1.33-.65,3.5,3.5,0,0,0,.94-.88,1.43,1.43,0,0,0,.23-1v0a.76.76,0,0,0-.31-.48.79.79,0,0,0-.54-.2ZM78,44.74a7.57,7.57,0,0,1-.94.23c-.34.06-.71.08-1.08.14a.42.42,0,0,0-.2,0,.48.48,0,0,1-.2,0,3.81,3.81,0,0,1,.2-.77,2.51,2.51,0,0,1,.4-.65,1.74,1.74,0,0,1,.54-.48,1.35,1.35,0,0,1,.68-.17,1.68,1.68,0,0,1,.65.14,1.06,1.06,0,0,1,.43.37s0,0,0,0,0,.09.06.09,0,0,0,.06a0,0,0,0,0,0,0,.61.61,0,0,1-.14.48,2.45,2.45,0,0,1-.45.51Z"/><path class="cls-11" d="M96.7,44.66a3.19,3.19,0,0,0-1-.88,4.3,4.3,0,0,0-1.33-.57h0a4.43,4.43,0,0,0,.94-1A2.76,2.76,0,0,0,95.77,41h0a2.34,2.34,0,0,0-.14-1.25,3.27,3.27,0,0,0-.71-1,4.69,4.69,0,0,0-2.66-1c-.2,0-.43,0-.74,0s-.65.09-1,.14-.74.14-1.11.23l-1,.34a2.81,2.81,0,0,0-.71.48.6.6,0,0,0-.23.57,1,1,0,0,0,.34.51,2.59,2.59,0,0,0,.37.23q.09,0,.09.09c0,.08,0,.17,0,.26v.26a.7.7,0,0,1,0,.23v.26c0,.57-.06,1.25-.09,2s0,1.47,0,2.18V46.7c0,.43,0,.79,0,1.16a3.42,3.42,0,0,0,.2,1,1.59,1.59,0,0,0,.4.71,1.36,1.36,0,0,0,.68.4,10.5,10.5,0,0,0,1.42.26,9.44,9.44,0,0,0,1.56.06,6.63,6.63,0,0,0,1.79-.34,6.05,6.05,0,0,0,1.56-.74A4.2,4.2,0,0,0,96.79,48a2.88,2.88,0,0,0,.48-1.53l-.31.28a.65.65,0,0,0,.11-.31c0-.17,0-.34,0-.57a6.32,6.32,0,0,0-.11-.65,1.45,1.45,0,0,0-.28-.6Zm-4.34,3.57c-.43,0-.79,0-1.11,0a3,3,0,0,1-.79-.17c0-.28,0-.62-.06-1s0-.74,0-1.08,0-.51,0-.68.06-.34.09-.48h.34a2,2,0,0,1,.34-.06,2.19,2.19,0,0,1,.43-.06c.17,0,.31,0,.43,0a4,4,0,0,1,1,.14,3.44,3.44,0,0,1,.94.4,2.31,2.31,0,0,1,.68.71,1.78,1.78,0,0,1,.26,1,1.88,1.88,0,0,1-.94.94,4,4,0,0,1-1.59.37Zm1.13-7.51V41l-.09.34-.17.4a2,2,0,0,1-.71.65l-.54.26a4,4,0,0,1-.62.14,2.1,2.1,0,0,1-.6,0,1.42,1.42,0,0,1-.34-.06v-.45a6.9,6.9,0,0,1,0-.77,6,6,0,0,1,.06-.74c0-.37.06-.68.06-.94a1.07,1.07,0,0,1,.51-.2,3.66,3.66,0,0,1,.82-.09A1.83,1.83,0,0,1,93,39.9a.9.9,0,0,1,.48.82ZM106.06,46a5.08,5.08,0,0,0-.17-1.87,4.33,4.33,0,0,0-.71-1.5,3.85,3.85,0,0,0-1.22-1,3.3,3.3,0,0,0-1.59-.4,4.12,4.12,0,0,0-1.67.37,4.17,4.17,0,0,0-1.3,1,5.24,5.24,0,0,0-.88,1.5,5.93,5.93,0,0,0-.31,1.9,5.61,5.61,0,0,0,.26,1.7,3.9,3.9,0,0,0,.77,1.39,3.49,3.49,0,0,0,1.19.94,3.38,3.38,0,0,0,1.53.34,3.83,3.83,0,0,0,2.81-1.28,4.71,4.71,0,0,0,.91-1.39,4.82,4.82,0,0,0,.4-1.7Zm-2.13-.2a3.44,3.44,0,0,1-.14,1,2.58,2.58,0,0,1-.37.79,2.14,2.14,0,0,1-.6.54,1.4,1.4,0,0,1-.77.2,1.26,1.26,0,0,1-.74-.23,1.63,1.63,0,0,1-.54-.54,2.7,2.7,0,0,1-.37-.82,5.59,5.59,0,0,1-.11-1,3.81,3.81,0,0,1,.14-1,3.62,3.62,0,0,1,.37-.82,1.78,1.78,0,0,1,.6-.54,1.4,1.4,0,0,1,.77-.2,1.31,1.31,0,0,1,.74.2,1.4,1.4,0,0,1,.54.54,3.33,3.33,0,0,1,.34.85,3.91,3.91,0,0,1,.14,1Zm10.89.2a5.08,5.08,0,0,0-.17-1.87,4.38,4.38,0,0,0-.74-1.5,3.74,3.74,0,0,0-1.19-1,3.38,3.38,0,0,0-1.59-.4,4,4,0,0,0-1.67.37,4.28,4.28,0,0,0-1.33,1,4.6,4.6,0,0,0-.85,1.5,5.25,5.25,0,0,0-.34,1.9,5.63,5.63,0,0,0,.28,1.7,4.33,4.33,0,0,0,.74,1.39,3.79,3.79,0,0,0,1.19.94,3.38,3.38,0,0,0,1.53.34,3.68,3.68,0,0,0,1.56-.34,4.12,4.12,0,0,0,1.28-.94,4.64,4.64,0,0,0,.88-1.39,5.55,5.55,0,0,0,.43-1.7Zm-2.15-.2a2.65,2.65,0,0,1-.14,1,2.06,2.06,0,0,1-.37.79,2.14,2.14,0,0,1-.6.54,1.4,1.4,0,0,1-.77.2,1.33,1.33,0,0,1-.74-.23,2,2,0,0,1-.54-.54,3.57,3.57,0,0,1-.34-.82,3.8,3.8,0,0,1-.11-1,2.9,2.9,0,0,1,.14-1,2.7,2.7,0,0,1,.37-.82,1.78,1.78,0,0,1,.6-.54,1.4,1.4,0,0,1,.77-.2,1.22,1.22,0,0,1,.71.2,1.47,1.47,0,0,1,.57.54,3.33,3.33,0,0,1,.34.85,4,4,0,0,1,.11,1Zm10.89,3.37a.64.64,0,0,0-.14-.28,3.76,3.76,0,0,0-.34-.45l-.54-.54-.6-.62c-.17-.14-.34-.31-.57-.54s-.37-.4-.54-.54l-.43-.43c-.11-.14-.23-.23-.31-.34l-.34-.34,0,0a4.93,4.93,0,0,1,.43-.37,4.93,4.93,0,0,0,.4-.34l.68-.6c.23-.2.45-.4.65-.6s.2-.26.28-.34a1.83,1.83,0,0,1,.26-.23c.11-.11.23-.2.31-.28a.88.88,0,0,0,.17-.37v-.14a.91.91,0,0,0-.28-.54A1.05,1.05,0,0,0,122,41a1.72,1.72,0,0,0-.68.11,2.13,2.13,0,0,0-.57.28,5.92,5.92,0,0,0-.48.4c-.14.14-.28.28-.43.45h0l-.4.37a5.38,5.38,0,0,1-.6.54l-.6.51-.31.26v-1.7c0-.6,0-1.16,0-1.73a10.69,10.69,0,0,1,.11-1.64,2.21,2.21,0,0,0-.09-.68.92.92,0,0,0-.43-.37c-.09,0-.14,0-.2,0a.21.21,0,0,0-.14,0,.18.18,0,0,0-.17,0,.79.79,0,0,0-.26,0l-.28.09h0a.84.84,0,0,0-.68.51,5.56,5.56,0,0,0-.09,1.13v2.83c0,.71,0,1.39,0,2s0,1.08,0,1.59,0,.94,0,1.3v.57c0,.45,0,.85,0,1.13a2.55,2.55,0,0,0,.17.77.8.8,0,0,0,.34.4,1.12,1.12,0,0,0,.57.14,1.2,1.2,0,0,0,.85-.4,1.3,1.3,0,0,0,.37-1,2.15,2.15,0,0,1,0-.43V48a2.8,2.8,0,0,0,.09-.68v-.71c.06.06.09.11.11.14s.09.09.11.11c.45.48.91.91,1.33,1.33s.82.79,1.16,1.11a7.36,7.36,0,0,0,.94.74c.28.17.51.26.65.2h.23a1.8,1.8,0,0,0,.65-.45.85.85,0,0,0,.28-.62ZM131,47.55a2.29,2.29,0,0,0-.14-1.11,1.8,1.8,0,0,0-.65-.82,4.86,4.86,0,0,0-1.28-.68,19.65,19.65,0,0,0-2-.65,1.48,1.48,0,0,1-.68-.37.83.83,0,0,1,.4-.54,1.93,1.93,0,0,1,.91-.31c.11,0,.23,0,.31-.06h.34a.79.79,0,0,1,.26,0l.26.09h0a1,1,0,0,0,.11.31.36.36,0,0,0,.2.26.84.84,0,0,0,.31.2,2.76,2.76,0,0,0,.51,0,.6.6,0,0,0,.51-.31,3.64,3.64,0,0,0,.28-.71h0l0,0a1.06,1.06,0,0,0,.06-.34,1.93,1.93,0,0,0-.09-.54,1.75,1.75,0,0,0-.43-.57,1.72,1.72,0,0,0-.6-.31A2.22,2.22,0,0,0,129,41a4.81,4.81,0,0,0-.62,0,6.52,6.52,0,0,0-1.45.28,4.79,4.79,0,0,0-1.28.6,3.61,3.61,0,0,0-1,.88,2.51,2.51,0,0,0-.4,2.1,1.28,1.28,0,0,0,.45.71,4,4,0,0,0,1,.57,9.65,9.65,0,0,0,1.5.45l.4.11c.82.2,1.25.51,1.22,1a.64.64,0,0,1-.45.48,2.52,2.52,0,0,1-1.08.2,2.63,2.63,0,0,1-1.19-.26,2.17,2.17,0,0,1-.71-.48l-.06-.06-.06-.06a.39.39,0,0,1-.11-.09.69.69,0,0,0-.43.09,5.44,5.44,0,0,0-.48.37,1.65,1.65,0,0,0-.31.51.73.73,0,0,0,0,.6,2.31,2.31,0,0,0,1.22,1,5.66,5.66,0,0,0,2,.34,5.59,5.59,0,0,0,1.36-.17,4,4,0,0,0,1.16-.54,3.24,3.24,0,0,0,.88-.88,2.38,2.38,0,0,0,.4-1.16Z"/></g></g></svg>